<?xml version="1.0" encoding="utf-8"?>
<!-- Generator: Adobe Illustrator 25.2.0, SVG Export Plug-In . SVG Version: 6.00 Build 0)  -->
<svg version="1.1" id="Layer_1" xmlns="http://www.w3.org/2000/svg" xmlns:xlink="http://www.w3.org/1999/xlink" x="0px" y="0px"
	 viewBox="0 0 120 117.6" style="enable-background:new 0 0 120 117.6;" xml:space="preserve">
<style type="text/css">
	.st0{fill:#252F3E;}
	.st1{fill:#FF9900;}
</style>
<g>
	<path class="st0" d="M34.9,53c0,1.4,0.2,2.6,0.4,3.4c0.3,0.8,0.7,1.8,1.2,2.8c0.2,0.3,0.3,0.6,0.3,0.9c0,0.4-0.2,0.8-0.7,1.1
		l-2.4,1.6c-0.3,0.2-0.7,0.3-1,0.3c-0.4,0-0.8-0.2-1.1-0.5c-0.5-0.6-1-1.2-1.4-1.8c-0.4-0.7-0.8-1.4-1.2-2.3
		c-3,3.5-6.7,5.3-11.2,5.3c-3.2,0-5.8-0.9-7.7-2.8c-1.9-1.8-2.8-4.3-2.8-7.3c0-3.3,1.1-5.9,3.5-7.9c2.3-2,5.4-3,9.4-3
		c1.3,0,2.6,0.1,4.1,0.3s2.9,0.5,4.4,0.8v-2.8c0-2.9-0.6-4.9-1.8-6.1c-1.4-1.1-3.4-1.7-6.4-1.7c-1.3,0-2.7,0.2-4.1,0.5
		s-2.8,0.8-4.1,1.3c-0.6,0.3-1.1,0.4-1.3,0.5c-0.3,0.1-0.5,0.1-0.6,0.1c-0.5,0-0.8-0.4-0.8-1.2v-1.9c0-0.6,0.1-1.1,0.3-1.3
		c0.2-0.3,0.5-0.5,1.1-0.8c1.3-0.7,2.9-1.3,4.8-1.7c1.9-0.5,3.9-0.7,6-0.7c4.6,0,7.9,1,10,3.1s3.2,5.2,3.2,9.4L34.9,53L34.9,53z
		 M19.4,58.8c1.3,0,2.6-0.2,3.9-0.7c1.4-0.5,2.6-1.3,3.6-2.4c0.6-0.7,1.1-1.5,1.3-2.4c0.2-0.9,0.4-2,0.4-3.3v-1.6
		c-1.1-0.3-2.3-0.5-3.5-0.7s-2.4-0.2-3.6-0.2c-2.6,0-4.4,0.5-5.7,1.5c-1.3,1-1.9,2.5-1.9,4.4c0,1.8,0.5,3.1,1.4,4.1
		C16.3,58.3,17.6,58.8,19.4,58.8z M50.1,62.9c-0.7,0-1.1-0.1-1.5-0.4c-0.3-0.2-0.6-0.8-0.8-1.5l-9-29.6c-0.2-0.8-0.3-1.3-0.3-1.5
		c0-0.6,0.3-1,0.9-1h3.7c0.7,0,1.2,0.1,1.5,0.4c0.3,0.2,0.5,0.8,0.8,1.5l6.4,25.3l6-25.3c0.2-0.8,0.4-1.3,0.7-1.5
		c0.3-0.2,0.8-0.4,1.5-0.4h3.1c0.7,0,1.2,0.1,1.5,0.4c0.3,0.2,0.6,0.8,0.7,1.5l6,25.6l6.6-25.6c0.2-0.8,0.5-1.3,0.8-1.5
		s0.8-0.4,1.5-0.4h3.6c0.6,0,1,0.3,1,1c0,0.2,0,0.4-0.1,0.6c0,0.2-0.1,0.5-0.3,1l-9.2,29.6c-0.2,0.8-0.5,1.3-0.8,1.5
		S73.6,63,72.9,63h-3.3c-0.7,0-1.2-0.1-1.5-0.4c-0.3-0.3-0.6-0.8-0.7-1.5l-5.9-24.7L55.6,61c-0.2,0.8-0.4,1.3-0.7,1.5
		s-0.8,0.4-1.5,0.4C53.4,62.9,50.1,62.9,50.1,62.9z M99.3,64c-2,0-4-0.2-5.9-0.7s-3.4-1-4.4-1.5c-0.6-0.3-1-0.7-1.2-1.1
		c-0.2-0.3-0.2-0.7-0.2-1.1v-2c0-0.8,0.3-1.2,0.9-1.2c0.2,0,0.5,0,0.7,0.1s0.6,0.2,1,0.4c1.3,0.6,2.7,1,4.2,1.3s3,0.5,4.6,0.5
		c2.4,0,4.3-0.4,5.6-1.3c1.3-0.8,2-2.1,2-3.6c0-1.1-0.3-2-1-2.7s-2-1.4-3.9-2l-5.5-1.7c-2.8-0.9-4.9-2.2-6.1-3.9
		c-1.3-1.7-1.9-3.6-1.9-5.5c0-1.6,0.3-3,1-4.2s1.6-2.3,2.8-3.1c1.1-0.9,2.4-1.5,4-2c1.5-0.5,3.1-0.7,4.8-0.7c0.8,0,1.7,0,2.6,0.2
		c0.9,0.1,1.7,0.3,2.5,0.4c0.8,0.2,1.5,0.4,2.2,0.6s1.2,0.5,1.6,0.7c0.5,0.3,0.9,0.6,1.1,1c0.2,0.3,0.3,0.7,0.3,1.3V34
		c0,0.8-0.3,1.2-0.9,1.2c-0.3,0-0.8-0.2-1.5-0.5c-2.2-1-4.6-1.5-7.3-1.5c-2.2,0-3.9,0.3-5.1,1.1c-1.2,0.7-1.8,1.8-1.8,3.4
		c0,1.1,0.4,2,1.1,2.7c0.8,0.7,2.2,1.5,4.2,2.1l5.4,1.7c2.8,0.9,4.7,2.1,5.9,3.7c1.2,1.6,1.8,3.4,1.8,5.4c0,1.6-0.3,3.1-1,4.4
		c-0.7,1.3-1.6,2.4-2.8,3.4s-2.6,1.6-4.2,2.1C103,63.7,101.2,64,99.3,64z"/>
	<path class="st1" d="M106.5,82.6c-12.6,9.3-30.9,14.2-46.6,14.2c-22,0-41.9-8.1-56.9-21.7c-1.2-1.1-0.1-2.5,1.3-1.7
		c16.2,9.4,36.2,15.1,56.9,15.1c14,0,29.3-2.9,43.4-8.9C106.8,78.7,108.6,81,106.5,82.6z M111.7,76.6c-1.6-2.1-10.6-1-14.7-0.5
		c-1.2,0.2-1.4-0.9-0.3-1.7c7.2-5,19-3.6,20.4-1.9S116.7,86,110,91.7c-1,0.9-2,0.4-1.6-0.7C109.9,87.1,113.3,78.6,111.7,76.6z"/>
</g>
</svg>
