<?xml version="1.0" encoding="utf-8"?>
<!-- Generator: Adobe Illustrator 27.3.1, SVG Export Plug-In . SVG Version: 6.00 Build 0)  -->
<svg version="1.1"
	 id="svg7838" xmlns:inkscape="http://www.inkscape.org/namespaces/inkscape" xmlns:sodipodi="http://sodipodi.sourceforge.net/DTD/sodipodi-0.dtd" xmlns:svg="http://www.w3.org/2000/svg" xmlns:rdf="http://www.w3.org/1999/02/22-rdf-syntax-ns#" xmlns:cc="http://creativecommons.org/ns#" xmlns:dc="http://purl.org/dc/elements/1.1/" inkscape:version="0.47 r22583" sodipodi:docname="Comptia-logo.svg"
	 xmlns="http://www.w3.org/2000/svg" xmlns:xlink="http://www.w3.org/1999/xlink" x="0px" y="0px" viewBox="0 0 256 256"
	 style="enable-background:new 0 0 256 256;" xml:space="preserve">
<style type="text/css">
	.st0{fill:#EE2722;}
</style>
<sodipodi:namedview  bordercolor="#666666" borderopacity="1" gridtolerance="10" guidetolerance="10" id="namedview22" inkscape:current-layer="svg7838" inkscape:cx="99" inkscape:cy="21.67041" inkscape:pageopacity="0" inkscape:pageshadow="2" inkscape:window-height="481" inkscape:window-maximized="0" inkscape:window-width="640" inkscape:window-x="0" inkscape:window-y="0" inkscape:zoom="2.7" objecttolerance="10" pagecolor="#ffffff" showgrid="false">
	</sodipodi:namedview>
<defs>
	
		<inkscape:perspective  id="perspective26" inkscape:persp3d-origin="100 : 16.666667 : 1" inkscape:vp_x="0 : 25 : 1" inkscape:vp_y="0 : 1000 : 0" inkscape:vp_z="200 : 25 : 1" sodipodi:type="inkscape:persp3d">
		</inkscape:perspective>
</defs>
<g id="layer1" transform="translate(-341.55914,-648.60298)">
	<g id="g7791" transform="matrix(5.5498251,0,0,-5.5498251,76.880766,3794.6057)">
		<g id="g3382" transform="translate(56.3042,564.2422)">
			<path id="path3384" class="st0" d="M3.6-19.6c-1,0-1.8-0.7-1.8-1.6c0-0.9,0.8-1.6,1.8-1.6s1.9,0.7,1.9,1.6
				C5.5-20.3,4.7-19.6,3.6-19.6 M3.6-23.8c-1.6,0-2.9,1.1-2.9,2.6c0,1.5,1.3,2.6,2.9,2.6c1.6,0,2.9-1.2,2.9-2.6
				C6.5-22.6,5.3-23.8,3.6-23.8"/>
		</g>
		<g id="g3386" transform="translate(64.8857,560.7822)">
			<path id="path3388" class="st0" d="M5.4-20.3c-0.6,0-1.1,0.5-1.1,1.1v2.2c0,0.5-0.5,0.9-1,0.9c-0.6,0-1-0.4-1-0.9v-3.3
				c-0.6,0-1.1,0.5-1.1,1.1v2.2c0,0.5-0.4,0.9-1,0.9c-0.6,0-1-0.4-1-0.9v-2.2c0-0.6-0.5-1.1-1.1-1.1v3.3c0,1.1,0.9,2,2.1,2
				c0.6,0,1.2-0.3,1.5-0.7c0.4,0.4,0.9,0.7,1.5,0.7c1.1,0,2.1-0.9,2.1-2V-20.3z"/>
		</g>
		<g id="g3390" transform="translate(67.7246,560.79)">
			<path id="path3392" class="st0" d="M6-20.3c-0.3,0-0.5,0-0.8,0.1c-0.5,0.2-0.9,0.7-0.7,1.3c0,0.1,0,0.1,0.1,0.2l0,0
				c0.3-0.3,0.8-0.5,1.4-0.5c1,0,1.7,0.7,1.7,1.5c0,0.9-0.8,1.6-1.7,1.6c-0.9,0-1.8-0.5-1.8-1.6v-3.4c0-0.6-0.5-1-1.1-1v4.5
				c0,1.5,1.2,2.7,2.9,2.7c0.7,0,1.4-0.3,2-0.8c0.5-0.5,0.8-1.2,0.8-1.9C8.8-19.2,7.6-20.3,6-20.3"/>
		</g>
		<g id="g3394" transform="translate(73.9473,565.9443)">
			<path id="path3396" class="st0" d="M7.4-19.2H5.1v-6.3h0c-0.6,0-1,0.5-1,1.1v5.2H1.8c-0.6,0-1,0.5-1,1h7.7
				C8.4-18.8,7.9-19.2,7.4-19.2"/>
		</g>
		<g id="g3398" transform="translate(79.481,565.9033)">
			<path id="path3400" class="st0" d="M8.5-19.2L7-22.5h2.8l-1.5,3.3L8.5-19.2z M10.9-24.8l-0.6,1.2H6.5L6-24.8
				c-0.3-0.5-1-0.6-1.5-0.6l3.1,6.7c0.2,0.4,0.5,0.6,0.8,0.6c0.3,0,0.7-0.2,0.8-0.6l3-6.6C11.7-25.4,11.1-25.3,10.9-24.8"/>
		</g>
		<g id="g3402" transform="translate(52.9253,565.1802)">
			<path id="path3404" class="st0" d="M2.9-19.4c-0.6,0.6-1.4,1-2.3,1c-1.6,0-3-1.2-3-2.7c0-1.5,1.3-2.7,3-2.7
				c0.8,0,1.5,0.3,2.1,0.8c0.4,0.3,1,0.3,1.3,0c-0.3-0.4-0.7-0.8-1.1-1.1c-0.7-0.4-1.5-0.6-2.3-0.6c-2.2,0-4,1.7-4,3.7
				c0,2,1.8,3.7,4,3.7c1.6,0,3-0.9,3.6-2.2C3.8-19.8,3.3-19.8,2.9-19.4"/>
		</g>
		<g id="g3406" transform="translate(83.0811,561.4883)">
			<path id="path3408" class="st0" d="M9.3-20.2C9.3-20.2,9.2-20.2,9.3-20.2c0,0,0-0.1,0.1-0.2l0,0c0,0-0.1,0-0.2,0
				c-0.1,0.1-0.1,0.2-0.1,0.2H8.9v0c0,0,0,0.1,0.1,0.1h0.1c0,0,0.1,0,0.1,0c0,0,0,0,0,0c0,0,0,0.1-0.1,0.1H8.9v-0.3
				c0-0.1,0-0.1-0.1-0.1h0v0.5c0,0.1,0,0.1,0.1,0.1h0.2c0.2,0,0.3-0.1,0.3-0.2C9.4-20.1,9.3-20.1,9.3-20.2 M9.1-19.7
				c-0.2,0-0.4-0.2-0.4-0.4c0-0.2,0.2-0.4,0.4-0.4c0.2,0,0.4,0.2,0.4,0.4C9.5-19.9,9.3-19.7,9.1-19.7 M9.1-20.6
				c-0.3,0-0.6,0.2-0.6,0.5c0,0.3,0.2,0.5,0.6,0.5c0.3,0,0.6-0.2,0.6-0.5C9.6-20.4,9.4-20.6,9.1-20.6"/>
		</g>
		<g id="g3410" transform="translate(75.0854,566.8071)">
			<path id="path3412" class="st0" d="M7.6-19.1v-6.3c0-0.6,0.5-1,1.1-1v6.3C8.6-19.5,8.2-19.1,7.6-19.1"/>
		</g>
	</g>
</g>
</svg>
