<?xml version="1.0" encoding="utf-8"?>
<!-- Generator: Adobe Illustrator 25.2.0, SVG Export Plug-In . SVG Version: 6.00 Build 0)  -->
<svg version="1.1" id="Layer_1" xmlns="http://www.w3.org/2000/svg" xmlns:xlink="http://www.w3.org/1999/xlink" x="0px" y="0px"
	 viewBox="0 0 150 150" style="enable-background:new 0 0 150 150;" xml:space="preserve">
<style type="text/css">
	.st0{fill:#EA4335;}
	.st1{fill:#4285F4;}
	.st2{fill:#34A853;}
	.st3{fill:#FBBC05;}
</style>
<g>
	<path class="st0" d="M94.2,48.3h4.2l12-12l0.6-5.1c-22.3-19.7-56.4-17.6-76.1,4.7c-5.5,6.2-9.4,13.6-11.6,21.6
		c1.3-0.5,2.8-0.6,4.2-0.3l24-4c0,0,1.2-2,1.8-1.9C63.9,39.7,81.9,38.3,94.2,48.3L94.2,48.3z"/>
	<path class="st1" d="M127.5,57.5c-2.8-10.1-8.4-19.3-16.3-26.3L94.3,48.1c7.1,5.8,11.2,14.6,11,23.7v3c8.3,0,15,6.7,15,15
		s-6.7,15.5-15,15.5h-30h-3v20.5l3,2.9h30c21.5,0.2,39.1-17,39.3-38.5C144.7,77,138.3,64.8,127.5,57.5z"/>
	<path class="st2" d="M45.3,128.7h30v-23.4h-30c-2.1,0-4.3-1.2-6.2-2.1l-4.2,1.3l-12.1,12l-1.1,4.2
		C28.6,125.9,36.8,128.7,45.3,128.7L45.3,128.7z"/>
	<path class="st3" d="M45.3,50.8C23.8,50.9,6.5,68.4,6.6,90c0.1,12,5.7,23.3,15.2,30.7l17.4-17.4c-7.6-3.4-10.9-12.3-7.5-19.8
		S44,72.5,51.5,75.9c3.3,1.5,6,4.2,7.5,7.5L76.4,66C69,56.4,57.5,50.7,45.3,50.8z"/>
</g>
</svg>
