<?xml version="1.0" encoding="utf-8"?>
<!-- Generator: Adobe Illustrator 25.2.0, SVG Export Plug-In . SVG Version: 6.00 Build 0)  -->
<svg version="1.1" id="Layer_1" xmlns="http://www.w3.org/2000/svg" xmlns:xlink="http://www.w3.org/1999/xlink" x="0px" y="0px"
	 viewBox="0 0 150 150" style="enable-background:new 0 0 150 150;" xml:space="preserve">
<style type="text/css">
	.st0{fill-rule:evenodd;clip-rule:evenodd;fill:#EE3E28;}
</style>
<path class="st0" d="M105.8,33H45.2C21.6,33,6,52.7,6,77c0,24.3,15.6,44,39.2,44h60.6c23.6,0,39.2-19.7,39.2-44
	C145,52.7,129.4,33,105.8,33L105.8,33z M105.8,106.7H45.2c-15.9,0-25.2-13.3-25.2-29.7c0-16.4,9.3-29.7,25.2-29.7h60.6
	c15.9,0,25.2,13.3,25.2,29.7C131.1,93.4,121.7,106.7,105.8,106.7L105.8,106.7z"/>
</svg>
